<?xml version="1.0" encoding="UTF-8"?>
<svg version="1.1" xmlns="http://www.w3.org/2000/svg" width="180" height="180">
<path d="M0 0 C2.27067101 2.09324677 3.70719486 4.03945477 5.0847168 6.79711914 C5.65496834 7.92827904 5.65496834 7.92827904 6.23674011 9.08229065 C6.83691704 10.29645912 6.83691704 10.29645912 7.44921875 11.53515625 C7.86669876 12.36961777 8.28417877 13.20407928 8.71430969 14.06382751 C9.59375288 15.82505122 10.470248 17.58774968 11.34399414 19.35180664 C12.68594007 22.05935265 14.03851073 24.76138981 15.39257812 27.46289062 C16.24542684 29.17416276 17.09766168 30.885741 17.94921875 32.59765625 C18.35540939 33.40912613 18.76160004 34.22059601 19.18009949 35.05665588 C19.5508107 35.80761032 19.92152191 36.55856476 20.3034668 37.33227539 C20.79619331 38.32463951 20.79619331 38.32463951 21.2988739 39.33705139 C22 41 22 41 22 43 C22.62229492 43.07516846 23.24458984 43.15033691 23.88574219 43.2277832 C35.04401033 44.5821308 46.19437249 45.9693072 57.3125 47.625 C58.1468457 47.74786377 58.98119141 47.87072754 59.84082031 47.99731445 C63.00117045 48.47678623 65.96128 48.98709333 69 50 C66.344452 55.91697345 61.36651629 59.86664883 56.5 64 C54.99835404 65.33147932 53.49872523 66.66523393 52 68 C51.09096924 68.7739209 51.09096924 68.7739209 50.16357422 69.56347656 C48.05185069 71.37987179 45.99485398 73.24737768 43.9375 75.125 C43.24527344 75.70378906 42.55304688 76.28257813 41.83984375 76.87890625 C38.82336189 79.706858 37.13781596 81.66914019 36.70336914 85.86450195 C36.92196928 89.3060731 37.40079962 92.60398695 38 96 C38.19086182 97.20914063 38.38172363 98.41828125 38.57836914 99.6640625 C39.19610553 103.43099982 39.86992855 107.18364634 40.5625 110.9375 C41.02686887 113.46658338 41.48667799 115.99650923 41.94140625 118.52734375 C42.24606812 120.17851196 42.24606812 120.17851196 42.55688477 121.86303711 C42.99368347 124.95528313 43.07948656 127.88183923 43 131 C37.9952298 129.51383542 33.64844212 127.37125977 29.08203125 124.90234375 C28.34297043 124.50801651 27.60390961 124.11368927 26.842453 123.70741272 C24.49676114 122.45515466 22.15443715 121.19676401 19.8125 119.9375 C17.4594264 118.67549087 15.10564682 117.41484693 12.75041199 116.15687561 C11.28885622 115.37591901 9.82860795 114.59250934 8.36982727 113.80638123 C5.60387163 112.32597885 2.98263389 110.9942113 0 110 C-2.7273889 111.20828194 -2.7273889 111.20828194 -5.5625 112.9375 C-10.81548975 116 -10.81548975 116 -13 116 C-13.33 116.66 -13.66 117.32 -14 118 C-16.48239555 119.33872046 -18.95953665 120.59394311 -21.5 121.8125 C-26.8793906 124.43443802 -32.1589262 127.1165296 -37.30078125 130.1875 C-39 131 -39 131 -42 131 C-41.823479 129.93152832 -41.64695801 128.86305664 -41.46508789 127.76220703 C-40.80404205 123.75572537 -40.14715682 119.74857038 -39.49145508 115.74121094 C-39.20839048 114.01479076 -38.9242338 112.28854924 -38.63891602 110.5625 C-38.22637501 108.06557931 -37.81791161 105.56801863 -37.41015625 103.0703125 C-37.28407486 102.31259552 -37.15799347 101.55487854 -37.02809143 100.77420044 C-36.78644509 99.28463083 -36.56031481 97.79245743 -36.35011292 96.29812622 C-36.10486141 94.68830584 -35.7956599 93.08754101 -35.43980408 91.49850464 C-34.75834636 87.82014099 -34.32531953 85.20574787 -36.1971283 81.86056519 C-38.0518893 79.67505853 -40.01364379 77.74755793 -42.12109375 75.8046875 C-42.85497818 75.08636749 -43.58886261 74.36804749 -44.34498596 73.62796021 C-46.68453671 71.34976683 -49.05940863 69.11286408 -51.4375 66.875 C-53.03439303 65.33330621 -54.62882572 63.78905964 -56.22070312 62.2421875 C-60.11911955 58.46475472 -64.04722991 54.72047391 -68 51 C-65.1573663 49.10491087 -64.1635781 48.68791646 -60.95922852 48.25390625 C-60.15151505 48.14038818 -59.34380157 48.02687012 -58.51161194 47.90991211 C-57.64281906 47.79526611 -56.77402618 47.68062012 -55.87890625 47.5625 C-54.98259995 47.43689697 -54.08629364 47.31129395 -53.16282654 47.18188477 C-50.29700946 46.78060335 -47.42997878 46.3892179 -44.5625 46 C-40.79179669 45.48723752 -37.02256486 44.96505426 -33.25390625 44.4375 C-32.3871376 44.322854 -31.52036896 44.20820801 -30.62733459 44.09008789 C-29.81646896 43.97656982 -29.00560333 43.86305176 -28.17016602 43.74609375 C-27.10452171 43.60192017 -27.10452171 43.60192017 -26.01734924 43.45483398 C-23.71687986 42.93616739 -22.00267281 42.25002962 -20 41 C-18.50708989 38.4614784 -17.2305033 36.01903211 -15.99609375 33.359375 C-15.44925682 32.21967255 -15.44925682 32.21967255 -14.89137268 31.0569458 C-13.72844223 28.62664806 -12.58274772 26.18867283 -11.4375 23.75 C-10.66325088 22.12315416 -9.88787242 20.49684528 -9.11132812 18.87109375 C-7.67965616 15.87146591 -6.25542551 12.86852073 -4.83764648 9.86230469 C-3.27144987 6.55107787 -1.65227833 3.26928583 0 0 Z " fill="#FC7007" transform="translate(89,44)"/>
<path d="M0 0 C17.49 0 34.98 0 53 0 C55.5553466 31.33661882 47.34085348 51.62043935 31 78 C30 79 30 79 27.93359375 79.09765625 C26.69802734 79.08025391 26.69802734 79.08025391 25.4375 79.0625 C24.19806641 79.04896484 24.19806641 79.04896484 22.93359375 79.03515625 C21.97646484 79.01775391 21.97646484 79.01775391 21 79 C18.10416303 69.14558912 15.21757838 59.28852065 12.34285641 49.42792797 C11.00779206 44.84960693 9.66952851 40.2722717 8.32397461 35.69702148 C7.02616307 31.28367585 5.73672853 26.86796283 4.45312691 22.45046425 C3.96132072 20.76344627 3.46647494 19.07731141 2.96858025 17.39208031 C2.27304753 15.03601466 1.58827667 12.67707311 0.90600586 10.31713867 C0.69669434 9.61726837 0.48738281 8.91739807 0.27172852 8.19631958 C-0.67034756 4.89638114 -1.11174287 3.3352286 0 0 Z " fill="#FD6E04" transform="translate(34,4)"/>
<path d="M0 0 C17.49 0 34.98 0 53 0 C54.31214673 2.62429346 53.76114754 3.50892019 52.95532227 6.29663086 C52.70052094 7.19119492 52.4457196 8.08575897 52.18319702 9.00743103 C51.89715607 9.98337723 51.61111511 10.95932343 51.31640625 11.96484375 C51.02553131 12.97797134 50.73465637 13.99109894 50.43496704 15.03492737 C49.4846195 18.33789311 48.52383465 21.63771695 47.5625 24.9375 C46.91332311 27.18345066 46.26464123 29.42954446 45.61645508 31.67578125 C44.03598038 37.14484852 42.44642826 42.61121921 40.85241699 48.07635498 C40.08775403 50.69901863 39.32507303 53.32224536 38.56347656 55.94580078 C37.44434795 59.79902704 36.31808794 63.65011793 35.1875 67.5 C34.86918213 68.58788818 34.55086426 69.67577637 34.22290039 70.79663086 C33.93664795 71.76093018 33.65039551 72.72522949 33.35546875 73.71875 C33.11465576 74.53279297 32.87384277 75.34683594 32.62573242 76.18554688 C32 78 32 78 31 79 C23.55115542 79.48057062 23.55115542 79.48057062 21.51054382 77.70129395 C7.25947416 61.65061196 -2.06082636 36.11407603 -1.25 14.9375 C-0.63125 7.5434375 -0.63125 7.5434375 0 0 Z " fill="#FD6D03" transform="translate(93,4)"/>
<path d="M0 0 C1.40897804 0.00333092 1.40897804 0.00333092 2.84642029 0.00672913 C3.90744461 0.00680466 4.96846893 0.00688019 6.06164551 0.00695801 C7.21579453 0.01211929 8.36994354 0.01728058 9.55906677 0.02259827 C10.73404221 0.02401321 11.90901764 0.02542816 13.11959839 0.02688599 C16.88981116 0.0325046 20.65996556 0.04506026 24.43016052 0.05775452 C26.97898779 0.06276712 29.52781599 0.06733044 32.0766449 0.07142639 C38.34033685 0.08248007 44.60399452 0.0992363 50.86766052 0.12025452 C52.72516626 36.79091057 52.72516626 36.79091057 41.86766052 53.12025452 C41.53766052 53.12025452 41.20766052 53.12025452 40.86766052 53.12025452 C40.86766052 50.48025452 40.86766052 47.84025452 40.86766052 45.12025452 C41.50187927 44.89595764 42.13609802 44.67166077 42.78953552 44.44056702 C45.08782209 43.28239695 45.08782209 43.28239695 45.69578552 40.73744202 C45.83500427 39.83252014 45.97422302 38.92759827 46.11766052 37.99525452 C46.26719177 37.08517639 46.41672302 36.17509827 46.57078552 35.23744202 C46.66875427 34.53877014 46.76672302 33.84009827 46.86766052 33.12025452 C47.52766052 33.12025452 48.18766052 33.12025452 48.86766052 33.12025452 C48.86766052 22.89025452 48.86766052 12.66025452 48.86766052 2.12025452 C32.36766052 2.12025452 15.86766052 2.12025452 -1.13233948 2.12025452 C-1.13233948 3.11025452 -1.13233948 4.10025452 -1.13233948 5.12025452 C-0.47233948 5.12025452 0.18766052 5.12025452 0.86766052 5.12025452 C0.86766052 7.43025452 0.86766052 9.74025452 0.86766052 12.12025452 C1.52766052 12.12025452 2.18766052 12.12025452 2.86766052 12.12025452 C2.86766052 15.09025452 2.86766052 18.06025452 2.86766052 21.12025452 C0.82638483 17.03770314 -0.23816369 13.32584211 -1.31983948 8.93275452 C-1.5099762 8.1960553 -1.70011292 7.45935608 -1.89601135 6.70033264 C-2.35687341 4.85178262 -2.75060404 2.98675099 -3.13233948 1.12025452 C-2.13233948 0.12025452 -2.13233948 0.12025452 0 0 Z " fill="#EDAE7C" transform="translate(36.13233947753906,3.8797454833984375)"/>
<path d="M0 0 C17.49 0 34.98 0 53 0 C54.62417747 3.24835494 52.92148885 6.32017227 51.91015625 9.6328125 C51.68678085 10.38464813 51.46340546 11.13648376 51.23326111 11.91110229 C50.51649129 14.31783285 49.78962721 16.72138068 49.0625 19.125 C48.57550526 20.75370708 48.08916858 22.38261107 47.60351562 24.01171875 C46.40997462 28.01013957 45.20737046 32.00573443 44 36 C43.67 36 43.34 36 43 36 C43.58490879 29.85845775 44.54066252 23.99320151 46 18 C46.66 18 47.32 18 48 18 C48 15.36 48 12.72 48 10 C48.66 10 49.32 10 50 10 C50.33 7.36 50.66 4.72 51 2 C34.5 2 18 2 1 2 C1.33 13.55 1.66 25.1 2 37 C0 35 0 35 -0.22705078 31.56005859 C-0.22655041 30.08948026 -0.2154947 28.61887742 -0.1953125 27.1484375 C-0.19329834 26.46241455 -0.19128418 25.7763916 -0.18920898 25.06958008 C-0.17873758 22.50465213 -0.15081496 19.93981941 -0.125 17.375 C-0.08375 11.64125 -0.0425 5.9075 0 0 Z " fill="#E7A36D" transform="translate(93,4)"/>
<path d="M0 0 C0.33 0.66 0.66 1.32 1 2 C-0.02938058 4.40680388 -1.10954994 6.68251787 -2.3125 9 C-2.63412109 9.64195313 -2.95574219 10.28390625 -3.28710938 10.9453125 C-4.65671139 13.63389469 -5.85361639 15.85361639 -8 18 C-10.1640625 18.1953125 -10.1640625 18.1953125 -12.625 18.125 C-13.44226562 18.10695313 -14.25953125 18.08890625 -15.1015625 18.0703125 C-15.72804688 18.04710938 -16.35453125 18.02390625 -17 18 C-17.50512244 16.39743892 -18.00391627 14.79288208 -18.5 13.1875 C-18.7784375 12.29417969 -19.056875 11.40085937 -19.34375 10.48046875 C-20 8 -20 8 -20 5 C-19.34 5 -18.68 5 -18 5 C-17.49384702 6.26839526 -16.99530901 7.53983102 -16.5 8.8125 C-16.08234375 9.87404297 -16.08234375 9.87404297 -15.65625 10.95703125 C-15 13 -15 13 -15 16 C-12.69 16 -10.38 16 -8 16 C-7.67 14.35 -7.34 12.7 -7 11 C-6.34 11 -5.68 11 -5 11 C-5 9.02 -5 7.04 -5 5 C-4.34 5 -3.68 5 -3 5 C-2.87625 4.360625 -2.7525 3.72125 -2.625 3.0625 C-2.315625 2.0415625 -2.315625 2.0415625 -2 1 C-1.34 0.67 -0.68 0.34 0 0 Z " fill="#EB914B" transform="translate(72,65)"/>
<path d="M0 0 C0.33 0 0.66 0 1 0 C2.65111621 35.88955107 2.65111621 35.88955107 -7 50 C-7.33 50 -7.66 50 -8 50 C-8 47.36 -8 44.72 -8 42 C-7.36578125 41.77570312 -6.7315625 41.55140625 -6.078125 41.3203125 C-3.77983843 40.16214243 -3.77983843 40.16214243 -3.171875 37.6171875 C-3.03265625 36.71226563 -2.8934375 35.80734375 -2.75 34.875 C-2.60046875 33.96492188 -2.4509375 33.05484375 -2.296875 32.1171875 C-2.19890625 31.41851562 -2.1009375 30.71984375 -2 30 C-1.34 30 -0.68 30 0 30 C0 20.1 0 10.2 0 0 Z " fill="#EB7822" transform="translate(85,7)"/>
<path d="M0 0 C0.99 0.33 1.98 0.66 3 1 C2.34 1.66 1.68 2.32 1 3 C0.90439535 5.59252409 0.90439535 5.59252409 1.25 8.625 C1.35699219 9.77613281 1.46398437 10.92726562 1.57421875 12.11328125 C2.30158872 18.75303464 3.12447125 25.37828256 4 32 C1.8480563 28.77208445 1.79913557 27.71599191 2 24 C1.34 24 0.68 24 0 24 C-0.06058594 23.37351563 -0.12117188 22.74703125 -0.18359375 22.1015625 C-0.30927734 20.87566406 -0.30927734 20.87566406 -0.4375 19.625 C-0.51871094 18.81289062 -0.59992188 18.00078125 -0.68359375 17.1640625 C-0.89090114 14.95727195 -0.89090114 14.95727195 -2 13 C-2.12145993 11.16962713 -2.17543185 9.33435867 -2.1875 7.5 C-2.20167969 6.5203125 -2.21585937 5.540625 -2.23046875 4.53125 C-2 2 -2 2 0 0 Z " fill="#ED8D42" transform="translate(125,124)"/>
<path d="M0 0 C-3.06841717 2.66451328 -5.17110239 3.42572285 -9.203125 3.73046875 C-10.1828125 3.81103516 -11.1625 3.89160156 -12.171875 3.97460938 C-13.18765625 4.04486328 -14.2034375 4.11511719 -15.25 4.1875 C-16.28125 4.26935547 -17.3125 4.35121094 -18.375 4.43554688 C-20.91599937 4.63553294 -23.45729756 4.8232295 -26 5 C-26.33 6.32 -26.66 7.64 -27 9 C-28.32 7.35 -29.64 5.7 -31 4 C-28.31275296 3.51937876 -25.62521967 3.04046504 -22.9375 2.5625 C-22.18533203 2.42779297 -21.43316406 2.29308594 -20.65820312 2.15429688 C-13.73753803 0.92595372 -7.05674569 -0.14401522 0 0 Z " fill="#EF8C40" transform="translate(52,90)"/>
<path d="M0 0 C0.99 0.33 1.98 0.66 3 1 C1.56933303 9.1698614 -0.64137417 17.05394988 -3 25 C-5 23 -5 23 -5.046875 20.6875 C-4.94890625 19.800625 -4.8509375 18.91375 -4.75 18 C-4.66234375 17.113125 -4.5746875 16.22625 -4.484375 15.3125 C-4 13 -4 13 -2 11 C-1.31822002 8.34280163 -1.31822002 8.34280163 -0.875 5.375 C-0.62363281 3.87066406 -0.62363281 3.87066406 -0.3671875 2.3359375 C-0.24601563 1.56507812 -0.12484375 0.79421875 0 0 Z " fill="#F1964E" transform="translate(133,40)"/>
<path d="M0 0 C0.66 0 1.32 0 2 0 C0.72977021 7.03264333 -1.01216318 13.80124472 -3.125 20.625 C-3.40214844 21.53378906 -3.67929688 22.44257812 -3.96484375 23.37890625 C-4.63897877 25.58727959 -5.31739977 27.79423163 -6 30 C-6.33 30 -6.66 30 -7 30 C-6.41509121 23.85845775 -5.45933748 17.99320151 -4 12 C-3.34 12 -2.68 12 -2 12 C-2 9.36 -2 6.72 -2 4 C-1.34 4 -0.68 4 0 4 C0 2.68 0 1.36 0 0 Z " fill="#F09C57" transform="translate(143,10)"/>
<path d="M0 0 C0.66 0 1.32 0 2 0 C0.9007105 6.31121503 -0.58137942 12.06338584 -3 18 C-10.75 18.125 -10.75 18.125 -13 17 C-12.67 16.34 -12.34 15.68 -12 15 C-9.36 15.66 -6.72 16.32 -4 17 C-4 15.02 -4 13.04 -4 11 C-3.34 11 -2.68 11 -2 11 C-1.34 7.37 -0.68 3.74 0 0 Z " fill="#EEA366" transform="translate(127,65)"/>
<path d="M0 0 C2.97126708 2.71077243 3.88243734 5.13151386 5 9 C2.69 8.67 0.38 8.34 -2 8 C-2.33 8.99 -2.66 9.98 -3 11 C-4 8 -4 8 -3.22265625 5.95703125 C-2.83980469 5.24933594 -2.45695312 4.54164062 -2.0625 3.8125 C-1.68222656 3.09707031 -1.30195312 2.38164063 -0.91015625 1.64453125 C-0.60980469 1.10183594 -0.30945313 0.55914062 0 0 Z " fill="#F28C3D" transform="translate(89,44)"/>
<path d="M0 0 C0.99 0.33 1.98 0.66 3 1 C3 2.32 3 3.64 3 5 C3.66 5 4.32 5 5 5 C5 6.32 5 7.64 5 9 C5.66 9 6.32 9 7 9 C7 10.32 7 11.64 7 13 C7.66 13 8.32 13 9 13 C9.33 15.64 9.66 18.28 10 21 C7.03569239 17.44283087 5.2278075 13.54949068 3.3125 9.375 C2.99216797 8.694375 2.67183594 8.01375 2.34179688 7.3125 C0 2.25941165 0 2.25941165 0 0 Z " fill="#EF9951" transform="translate(100,51)"/>
<path d="M0 0 C2.29648357 2.89585905 4.04347557 5.8172031 5.6875 9.125 C6.12449219 9.99382812 6.56148438 10.86265625 7.01171875 11.7578125 C8 14 8 14 8 16 C6 16 6 16 4.5 14.6875 C1.56275119 11.38309509 0.71159431 9.13212697 0.375 4.8125 C0.30023438 3.91144531 0.22546875 3.01039062 0.1484375 2.08203125 C0.09945312 1.39496094 0.05046875 0.70789062 0 0 Z " fill="#F29A55" transform="translate(98,61)"/>
<path d="M0 0 C0.33 0 0.66 0 1 0 C1 2.64 1 5.28 1 8 C0.34 8 -0.32 8 -1 8 C-1.144375 8.61875 -1.28875 9.2375 -1.4375 9.875 C-2 12 -2 12 -3 14 C-3.99 14 -4.98 14 -6 14 C-4.50829734 9.0276578 -2.39542583 4.58154261 0 0 Z " fill="#F2974F" transform="translate(84,54)"/>
<path d="M0 0 C0.33 0 0.66 0 1 0 C3.29612756 11.52164009 3.29612756 11.52164009 3 17 C-2.75 15.25 -2.75 15.25 -5 13 C-2.03 13.495 -2.03 13.495 1 14 C0.835 13.175 0.67 12.35 0.5 11.5 C-0.05896045 7.58727683 -0.06807187 3.94816827 0 0 Z " fill="#F0AB70" transform="translate(129,158)"/>
<path d="M0 0 C0.33 0.66 0.66 1.32 1 2 C-0.07518118 4.44332726 -1.19808566 6.76754523 -2.4375 9.125 C-2.77587891 9.78371094 -3.11425781 10.44242188 -3.46289062 11.12109375 C-4.30149926 12.75106547 -5.14984811 14.37601909 -6 16 C-6.33 16 -6.66 16 -7 16 C-7 14.35 -7 12.7 -7 11 C-6.34 11 -5.68 11 -5 11 C-5 9.02 -5 7.04 -5 5 C-4.34 5 -3.68 5 -3 5 C-2.814375 4.0409375 -2.814375 4.0409375 -2.625 3.0625 C-2.41875 2.381875 -2.2125 1.70125 -2 1 C-1.34 0.67 -0.68 0.34 0 0 Z " fill="#F2A15F" transform="translate(72,65)"/>
<path d="M0 0 C-1.49097658 3.7952131 -3.75700849 5.61042731 -7 8 C-7 6.68 -7 5.36 -7 4 C-7.66 3.67 -8.32 3.34 -9 3 C-8.67 2.34 -8.34 1.68 -8 1 C-5.2303041 0.27113266 -2.87137415 0 0 0 Z " fill="#F39549" transform="translate(158,94)"/>
<path d="M0 0 C0.33 0 0.66 0 1 0 C1.33 3.3 1.66 6.6 2 10 C3.32 10.33 4.64 10.66 6 11 C1.375 14 1.375 14 -2 14 C-1.34 9.38 -0.68 4.76 0 0 Z " fill="#EFA96D" transform="translate(49,161)"/>
<path d="M0 0 C0.66 0 1.32 0 2 0 C0.40109514 5.19644079 -1.74138003 10.06612142 -4 15 C-4.33 15 -4.66 15 -5 15 C-5 12.36 -5 9.72 -5 7 C-4.0409375 6.6596875 -4.0409375 6.6596875 -3.0625 6.3125 C-0.72806339 5.14749104 -0.72806339 5.14749104 -0.25 2.375 C-0.1675 1.59125 -0.085 0.8075 0 0 Z " fill="#F0954B" transform="translate(82,42)"/>
<path d="M0 0 C0.99 0.33 1.98 0.66 3 1 C3 3.31 3 5.62 3 8 C3.66 8 4.32 8 5 8 C5 10.97 5 13.94 5 17 C3.44403204 13.88806409 2.35817914 11.22966045 1.375 7.9375 C1.11460938 7.08027344 0.85421875 6.22304687 0.5859375 5.33984375 C0 3 0 3 0 0 Z " fill="#F29D58" transform="translate(34,8)"/>
<path d="M0 0 C0.33 0 0.66 0 1 0 C1 1.98 1 3.96 1 6 C-6.625 5.375 -6.625 5.375 -10 2 C-7.03 2.33 -4.06 2.66 -1 3 C-0.67 2.01 -0.34 1.02 0 0 Z " fill="#F1832E" transform="translate(129,166)"/>
<path d="M0 0 C-2.97 0.66 -5.94 1.32 -9 2 C-9.33 3.32 -9.66 4.64 -10 6 C-11.32 4.35 -12.64 2.7 -14 1 C-12.41913952 0.63495397 -10.83516093 0.28339494 -9.25 -0.0625 C-8.36828125 -0.25972656 -7.4865625 -0.45695312 -6.578125 -0.66015625 C-4 -1 -4 -1 0 0 Z " fill="#F0AE76" transform="translate(35,93)"/>
<path d="M0 0 C1.98 0 3.96 0 6 0 C2.8745041 2.64465038 -0.08788267 3.84414715 -4 5 C-4 4.01 -4 3.02 -4 2 C-2.68 2 -1.36 2 0 2 C0 1.34 0 0.68 0 0 Z " fill="#EDA05D" transform="translate(80,155)"/>
<path d="M0 0 C0.99 0.33 1.98 0.66 3 1 C2.67 3.31 2.34 5.62 2 8 C0 6.6875 0 6.6875 -2 5 C-2 4.01 -2 3.02 -2 2 C-1.34 2 -0.68 2 0 2 C0 1.34 0 0.68 0 0 Z " fill="#F68630" transform="translate(28,95)"/>
<path d="M0 0 C0.99 0.33 1.98 0.66 3 1 C2.34 1.66 1.68 2.32 1 3 C0.75684344 5.66949409 0.75684344 5.66949409 0.875 8.625 C0.89304687 9.62789062 0.91109375 10.63078125 0.9296875 11.6640625 C0.95289062 12.43492187 0.97609375 13.20578125 1 14 C-1.18841354 10.71737969 -1.24854665 9.68209102 -1.1875 5.875 C-1.18105469 4.98554688 -1.17460938 4.09609375 -1.16796875 3.1796875 C-1 1 -1 1 0 0 Z " fill="#F1AC72" transform="translate(125,124)"/>
<path d="M0 0 C0.99 0 1.98 0 3 0 C3 0.99 3 1.98 3 3 C3.66 3.33 4.32 3.66 5 4 C3.68 4.99 2.36 5.98 1 7 C0.67 4.69 0.34 2.38 0 0 Z " fill="#F67B24" transform="translate(138,106)"/>
<path d="M0 0 C0.66 0 1.32 0 2 0 C3.60725635 3.21451269 3.05748185 6.43612536 3 10 C1.11608215 6.73454239 0.50712033 3.71888239 0 0 Z " fill="#F2A261" transform="translate(52,70)"/>
<path d="M0 0 C1.5 1.375 1.5 1.375 3 3 C3 3.66 3 4.32 3 5 C1.35 5.33 -0.3 5.66 -2 6 C-1.34 4.02 -0.68 2.04 0 0 Z " fill="#EDA86F" transform="translate(89,44)"/>
<path d="" fill="#FFFFFF" transform="translate(0,0)"/>
<path d="" fill="#FFFFFF" transform="translate(0,0)"/>
<path d="" fill="#FFFFFF" transform="translate(0,0)"/>
<path d="" fill="#FFFFFF" transform="translate(0,0)"/>
<path d="" fill="#FFFFFF" transform="translate(0,0)"/>
<path d="" fill="#FFFFFF" transform="translate(0,0)"/>
<path d="" fill="#FFFFFF" transform="translate(0,0)"/>
<path d="" fill="#FFFFFF" transform="translate(0,0)"/>
<path d="" fill="#FFFFFF" transform="translate(0,0)"/>
<path d="" fill="#FFFFFF" transform="translate(0,0)"/>
<path d="" fill="#FFFFFF" transform="translate(0,0)"/>
<path d="" fill="#FFFFFF" transform="translate(0,0)"/>
<path d="" fill="#FFFFFF" transform="translate(0,0)"/>
<path d="" fill="#FFFFFF" transform="translate(0,0)"/>
<path d="" fill="#FFFFFF" transform="translate(0,0)"/>
<path d="" fill="#FFFFFF" transform="translate(0,0)"/>
<path d="" fill="#FFFFFF" transform="translate(0,0)"/>
<path d="" fill="#FFFFFF" transform="translate(0,0)"/>
<path d="" fill="#FFFFFF" transform="translate(0,0)"/>
<path d="" fill="#FFFFFF" transform="translate(0,0)"/>
<path d="" fill="#FFFFFF" transform="translate(0,0)"/>
<path d="" fill="#FFFFFF" transform="translate(0,0)"/>
<path d="" fill="#FFFFFF" transform="translate(0,0)"/>
<path d="" fill="#FFFFFF" transform="translate(0,0)"/>
<path d="" fill="#FFFFFF" transform="translate(0,0)"/>
<path d="" fill="#FFFFFF" transform="translate(0,0)"/>
<path d="" fill="#FFFFFF" transform="translate(0,0)"/>
<path d="" fill="#FFFFFF" transform="translate(0,0)"/>
<path d="" fill="#FFFFFF" transform="translate(0,0)"/>
<path d="" fill="#FFFFFF" transform="translate(0,0)"/>
<path d="" fill="#FFFFFF" transform="translate(0,0)"/>
<path d="" fill="#FFFFFF" transform="translate(0,0)"/>
<path d="" fill="#FFFFFF" transform="translate(0,0)"/>
<path d="" fill="#FFFFFF" transform="translate(0,0)"/>
<path d="" fill="#FFFFFF" transform="translate(0,0)"/>
<path d="" fill="#FFFFFF" transform="translate(0,0)"/>
<path d="" fill="#FFFFFF" transform="translate(0,0)"/>
<path d="" fill="#FFFFFF" transform="translate(0,0)"/>
<path d="" fill="#FFFFFF" transform="translate(0,0)"/>
<path d="" fill="#FFFFFF" transform="translate(0,0)"/>
<path d="" fill="#FFFFFF" transform="translate(0,0)"/>
<path d="" fill="#FFFFFF" transform="translate(0,0)"/>
<path d="" fill="#FFFFFF" transform="translate(0,0)"/>
<path d="" fill="#FEFFFF" transform="translate(0,0)"/>
<path d="" fill="#FFFFFF" transform="translate(0,0)"/>
<path d="" fill="#FFFFFF" transform="translate(0,0)"/>
<path d="" fill="#FFFFFF" transform="translate(0,0)"/>
<path d="" fill="#FFFFFF" transform="translate(0,0)"/>
<path d="" fill="#FFFFFF" transform="translate(0,0)"/>
</svg>
